<?xml version="1.0" standalone="no"?>
<!DOCTYPE svg PUBLIC "-//W3C//DTD SVG 20010904//EN"
 "http://www.w3.org/TR/2001/REC-SVG-20010904/DTD/svg10.dtd">
<svg version="1.0" xmlns="http://www.w3.org/2000/svg"
 width="953.000000pt" height="909.000000pt" viewBox="0 0 953.000000 909.000000"
 preserveAspectRatio="xMidYMid meet">

<g transform="translate(0.000000,909.000000) scale(0.100000,-0.100000)"
fill="#000000" stroke="none">
<path d="M0 4545 l0 -4545 4765 0 4765 0 0 4545 0 4545 -4765 0 -4765 0 0
-4545z m4675 1585 c-3 -6 -18 -10 -32 -10 -14 0 -42 -4 -62 -9 -20 -5 -72 -15
-116 -21 -44 -7 -99 -21 -122 -31 -23 -10 -60 -19 -83 -19 l-40 0 36 35 c33
33 40 35 83 30 27 -3 79 2 126 12 91 20 219 28 210 13z m402 -6 c59 -9 110
-18 113 -20 15 -16 -32 -19 -108 -7 -142 21 -152 23 -152 33 0 14 22 13 147
-6z m-234 -236 c12 -6 28 -18 35 -27 19 -24 248 -408 462 -776 384 -658 503
-870 507 -907 8 -53 -17 -63 -116 -49 -42 5 -272 38 -511 71 l-435 61 -390
-66 c-214 -36 -429 -68 -477 -72 -102 -7 -121 1 -108 47 12 42 339 635 518
939 47 80 161 279 254 441 144 253 209 350 234 350 3 0 15 -5 27 -12z m1081
-127 c11 -13 15 -27 11 -40 -8 -26 -14 -26 -47 4 -32 27 -34 35 -13 35 8 0 15
5 15 10 0 16 15 12 34 -9z m-2359 -25 c93 -39 99 -183 10 -242 -32 -21 -116
-15 -144 10 -13 12 -27 15 -46 10 -26 -6 -27 -6 -14 17 8 14 12 47 10 82 -3
55 -1 59 33 92 48 45 94 55 151 31z m2545 -4 c52 -26 80 -74 80 -138 0 -49 -3
-55 -37 -84 -72 -58 -143 -59 -204 0 -36 34 -39 41 -39 91 0 117 99 182 200
131z m-3100 -655 c13 -7 35 -28 48 -47 20 -29 23 -44 20 -88 -4 -45 -10 -59
-42 -90 -33 -34 -41 -37 -90 -37 -44 0 -59 5 -81 25 -77 71 -73 181 8 230 36
23 100 26 137 7z m-96 -319 c10 -49 -3 -98 -25 -98 -22 0 -24 20 -7 85 14 53
23 57 32 13z m3806 -118 c0 -5 -5 -10 -11 -10 -8 0 -8 -4 -1 -12 5 -7 12 -71
14 -143 2 -110 1 -130 -12 -130 -11 0 -15 13 -17 45 -2 41 -11 159 -17 220 -1
14 -1 28 1 33 6 11 43 9 43 -3z m-3830 -35 c0 -24 -24 -95 -32 -95 -10 0 -10
36 -2 79 7 31 34 44 34 16z m-14 -113 c17 -11 13 -41 -8 -48 -23 -7 -38 3 -38
25 0 29 21 40 46 23z m3854 -182 c0 -5 -4 -10 -10 -10 -5 0 -10 5 -10 10 0 6
5 10 10 10 6 0 10 -4 10 -10z m-3764 -97 c74 -48 70 -167 -7 -226 -50 -37 -90
-42 -142 -19 -82 36 -113 109 -78 186 17 39 29 50 71 70 42 20 58 22 91 15 22
-5 51 -17 65 -26z m3758 -205 c-3 -40 -7 -81 -9 -90 -2 -10 5 -20 15 -23 29
-9 78 -71 85 -107 22 -116 -121 -219 -212 -152 -119 88 -89 238 54 269 18 3
32 10 32 13 -1 4 -1 42 0 85 1 69 3 77 20 77 18 0 19 -6 15 -72z m-2639 -233
c336 -215 674 -425 701 -435 14 -6 31 -10 38 -10 7 0 66 34 132 76 65 42 153
98 194 124 41 26 195 124 343 218 293 188 342 216 363 208 19 -7 4 -37 -112
-222 -222 -354 -834 -1233 -874 -1254 -56 -30 -108 5 -197 134 -115 165 -339
485 -428 611 -51 72 -156 227 -233 345 -77 118 -161 248 -187 287 -27 42 -45
79 -41 88 7 18 17 12 301 -170z m755 104 c0 -5 8 -9 18 -7 21 3 65 -26 54 -37
-4 -4 1 -5 10 -2 9 3 22 -1 30 -11 11 -13 11 -14 -1 -7 -10 6 -12 4 -7 -4 5
-7 18 -11 29 -10 26 3 77 -20 94 -41 11 -13 12 -12 13 5 1 18 2 18 10 -2 5
-13 14 -23 19 -23 6 0 8 7 5 15 -4 8 -1 15 6 15 6 0 8 -4 5 -10 -9 -14 1 -12
38 6 51 26 27 8 -61 -46 -45 -27 -119 -72 -164 -100 -45 -27 -92 -50 -105 -50
l-25 0 3 143 c1 78 5 150 7 160 5 18 22 24 22 6z m1774 -363 c17 7 21 -3 7
-24 -6 -10 -10 -10 -21 3 -7 8 -19 15 -27 15 -8 0 -11 5 -8 10 5 8 11 8 20 0
7 -6 20 -8 29 -4z m-45 -52 c-14 -18 -24 -11 -15 11 3 9 11 13 16 10 8 -5 7
-11 -1 -21z m-29 -87 c-30 -92 -306 -462 -336 -450 -8 3 -14 -1 -14 -8 0 -8
-14 -29 -30 -47 -22 -24 -35 -30 -46 -24 -12 7 -7 16 30 50 25 24 46 47 46 52
0 6 6 10 13 10 35 0 231 265 308 417 34 67 52 67 29 0z m-3024 -519 c64 4 107
-16 131 -61 21 -41 22 -116 1 -146 -16 -23 -16 -24 31 -50 27 -14 61 -36 76
-49 25 -20 27 -24 14 -38 -14 -13 -22 -9 -79 36 -68 55 -68 55 -123 39 -21 -6
-51 -8 -67 -4 -37 8 -96 69 -104 107 -8 38 8 98 33 130 19 23 19 23 -2 47
l-22 24 30 -19 c21 -14 43 -18 81 -16z m2593 -22 c11 -10 28 -37 36 -61 22
-57 8 -112 -40 -154 -48 -42 -78 -48 -140 -26 -40 13 -56 25 -71 53 -37 70
-15 164 48 196 43 22 139 17 167 -8z m-369 -366 c0 -13 -7 -20 -20 -20 -10 0
-42 -9 -70 -20 -57 -23 -60 -23 -60 -12 0 10 65 42 84 42 8 0 19 7 26 15 18
21 40 19 40 -5z m-166 -69 c-5 -5 -18 -11 -29 -13 -11 -1 -22 -6 -25 -10 -3
-4 -12 -3 -19 1 -9 6 0 13 30 23 45 16 60 15 43 -1z m-89 -31 c3 -6 -5 -10
-19 -10 -14 0 -27 -4 -30 -9 -6 -10 -66 -21 -66 -12 0 5 82 37 102 40 4 1 10
-3 13 -9z m-125 -44 c0 -13 -7 -27 -16 -30 -24 -9 -77 -7 -94 4 -13 8 -13 10
2 10 9 0 18 5 20 11 3 9 44 23 81 28 4 1 7 -10 7 -23z m-322 -68 c-5 -13 -49
-25 -113 -30 -31 -2 -41 1 -43 14 -3 13 6 18 40 21 96 8 120 7 116 -5z"/>
<path d="M4750 4914 c-112 -64 -350 -220 -350 -229 0 -3 7 -2 15 1 8 4 22 1
30 -6 15 -13 39 -4 30 11 -4 5 -1 9 5 9 7 0 14 -9 17 -21 4 -16 11 -19 29 -15
25 7 54 -1 54 -15 0 -5 -7 -9 -16 -9 -8 0 -12 5 -9 10 3 6 1 10 -4 10 -15 0
-13 -11 3 -33 11 -14 15 -15 20 -5 5 10 7 10 12 1 3 -7 10 -13 16 -13 15 0 38
-27 35 -42 -2 -7 -2 -10 0 -5 3 4 10 4 15 1 7 -4 8 -2 4 4 -5 8 -2 10 8 6 8
-3 18 -14 21 -25 4 -10 10 -18 15 -16 4 1 7 -2 7 -6 -1 -5 10 -15 26 -23 15
-8 27 -19 27 -24 0 -6 7 -10 14 -10 11 0 16 -14 19 -47 2 -27 4 79 5 235 1
155 1 282 0 282 -2 -1 -23 -12 -48 -26z m-284 -214 c0 -20 -7 -25 -19 -13 -4
3 -2 12 4 20 15 17 15 17 15 -7z m165 -77 c13 -16 12 -17 -3 -4 -17 13 -22 21
-14 21 2 0 10 -8 17 -17z"/>
</g>
</svg>
